<?xml version="1.0" encoding="iso-8859-1"?>
<!-- Generator: Adobe Illustrator 19.0.0, SVG Export Plug-In . SVG Version: 6.00 Build 0)  -->
<svg version="1.1" id="Capa_1" xmlns="http://www.w3.org/2000/svg" xmlns:xlink="http://www.w3.org/1999/xlink" x="0px" y="0px"
	 viewBox="0 0 512 512" style="enable-background:new 0 0 512 512;" xml:space="preserve">
<path style="fill:#A7C6D3;" d="M102.585,157.104l22.503,284.108c2.83,35.733,32.653,63.288,68.499,63.288h124.829
	c35.845,0,65.668-27.555,68.499-63.288l22.503-284.108H102.585z"/>
<path style="fill:#95B6C1;" d="M393.181,362.085H217.876l-5.247-41.778c-2.844-22.641,8.141-44.784,27.888-56.218l100.84-58.388
	v-48.597H102.585l22.503,284.108c2.83,35.733,32.653,63.288,68.499,63.288h77.397c-15.531-6.866-25.569-16.421-32.045-26.166
	c-11.599-17.452,1.036-40.798,21.991-40.798h126.275L393.181,362.085z"/>
<path style="fill:#FFEB99;" d="M86.589,276.936l8.121,96.779c1.209,14.403,13.251,25.477,27.705,25.477h267.173
	c14.453,0,26.496-11.074,27.705-25.477l8.121-96.779c1.19-14.178-9.997-26.342-24.224-26.342H110.813
	C96.585,250.594,85.399,262.758,86.589,276.936z"/>
<g>
	<path style="fill:#FFDE55;" d="M110.813,250.594c-14.227,0-25.414,12.165-24.224,26.342l8.121,96.78
		c1.209,14.403,13.251,25.477,27.705,25.477h100.122l-9.908-78.885c-2.844-22.64,8.141-44.784,27.888-56.218l23.308-13.496H110.813z
		"/>
	<path style="fill:#FFDE55;" d="M375.7,376.692h-29.378c-4.142,0-7.5-3.357-7.5-7.5s3.358-7.5,7.5-7.5H375.7
		c2.786,0,5.151-2.175,5.384-4.951l1.629-19.415c0.347-4.127,3.966-7.186,8.101-6.847c4.127,0.347,7.193,3.974,6.846,8.101
		l-1.629,19.415C395.152,368.479,386.221,376.692,375.7,376.692z"/>
</g>
<path style="fill:#B3DBF4;" d="M344.558,7.5H167.443c-15.782,0-29.603,10.582-33.721,25.817l-31.138,115.211h306.831L378.278,33.317
	C374.161,18.082,360.34,7.5,344.558,7.5z"/>
<path style="fill:#94CBED;" d="M280.244,7.5h-112.8c-15.782,0-29.603,10.582-33.721,25.817l-31.138,115.211h112.8l31.138-115.211
	C250.641,18.081,264.462,7.5,280.244,7.5z"/>
<path style="fill:#CAE7FC;" d="M402.746,205.701h-293.49c-26.729,0-48.597-21.869-48.597-48.597l0,0
	c0-26.729,21.869-48.597,48.597-48.597h293.491c26.729,0,48.597,21.869,48.597,48.597l0,0
	C451.344,183.833,429.475,205.701,402.746,205.701z"/>
<path style="fill:#B3DBF4;" d="M175.163,157.104L175.163,157.104c0-26.729,21.869-48.598,48.597-48.598H109.256
	c-26.729,0-48.597,21.869-48.597,48.597l0,0c0,26.729,21.869,48.597,48.597,48.597H223.76
	C197.032,205.701,175.163,183.833,175.163,157.104z"/>
<path style="fill:#94CBED;" d="M256.001,63.614c28.695,0,51.957-25.123,51.957-56.114H204.043
	C204.043,38.491,227.305,63.614,256.001,63.614z"/>
<path style="fill:#73B7DD;" d="M263.825,7.5h-59.782c0,30.991,23.262,56.114,51.958,56.114c11.131,0,21.436-3.793,29.891-10.229
	C272.549,43.228,263.825,26.469,263.825,7.5z"/>
<path d="M334.87,303.907c-4.142,0-7.5,3.357-7.5,7.5v12.451c0,4.143,3.358,7.5,7.5,7.5s7.5-3.357,7.5-7.5v-12.451
	C342.37,307.265,339.012,303.907,334.87,303.907z"/>
<path d="M270.785,317.936c-10.786,8.366-25.854,8.365-36.64,0c-3.273-2.542-7.984-1.943-10.523,1.329
	c-2.539,3.273-1.943,7.984,1.33,10.523c8.1,6.282,17.807,9.423,27.513,9.423c9.707,0,19.414-3.141,27.514-9.423
	c3.273-2.539,3.868-7.25,1.33-10.523C278.77,315.99,274.058,315.396,270.785,317.936z"/>
<path d="M173.557,306.161c-7.937,0-15.4,3.877-19.964,10.371c-2.535,3.606-1.666,8.585,1.941,11.12
	c3.606,2.534,8.585,1.666,11.12-1.941c1.602-2.279,4.118-3.586,6.904-3.586c2.786,0,5.24,1.353,6.904,3.586
	c3.826,5.138,9.724,2.921,11.12,1.941c3.607-2.535,4.476-7.514,1.941-11.12C188.956,310.039,181.493,306.161,173.557,306.161z"/>
<path d="M458.844,157.104c0-30.393-24.3-55.2-54.49-56.056L385.519,31.36C380.528,12.896,363.685,0,344.558,0H167.443
	c-19.126,0-35.97,12.896-40.961,31.359l-18.835,69.688c-30.19,0.856-54.491,25.663-54.491,56.056
	c0,27.582,20.013,50.561,46.277,55.219l2.538,32.041c-5.539,1.608-10.609,4.696-14.575,9.008
	c-6.006,6.531-9.026,15.349-8.284,24.191l8.122,96.779c1.303,15.53,12.818,28.17,27.526,31.489l2.849,35.973
	c1.518,19.169,10.132,36.912,24.255,49.961C155.99,504.813,174.357,512,193.587,512h124.828c19.229,0,37.597-7.187,51.72-20.235
	c14.123-13.049,22.737-30.792,24.255-49.961l2.849-35.973c14.708-3.319,26.223-15.959,27.526-31.489l8.122-96.779
	c0.742-8.843-2.277-17.66-8.284-24.191c-3.966-4.312-9.036-7.4-14.575-9.007l2.538-32.041
	C438.83,207.664,458.844,184.685,458.844,157.104z M140.964,35.273C144.189,23.337,155.079,15,167.443,15h29.526
	c3.482,31.553,28.618,56.114,59.03,56.114c20.936,0,40.561-11.986,51.218-31.282c2.003-3.626,0.687-8.188-2.939-10.191
	s-8.188-0.688-10.191,2.939c-8.138,14.736-22.377,23.534-38.087,23.534c-22.182,0-40.619-17.857-43.927-41.114h132.484
	c12.365,0,23.254,8.337,26.48,20.273l17.766,65.733H123.198L140.964,35.273z M68.158,157.104c0-22.661,18.436-41.097,41.097-41.097
	h293.491c22.661,0,41.097,18.436,41.097,41.097s-18.436,41.098-41.097,41.098H109.255C86.594,198.201,68.158,179.765,68.158,157.104
	z M359.956,480.747C348.612,491.228,333.859,497,318.415,497H193.587c-15.444,0-30.197-5.772-41.541-16.253
	c-11.344-10.48-18.263-24.731-19.482-40.127l-2.687-33.928h252.247l-2.687,33.928C378.218,456.016,371.299,470.267,359.956,480.747z
	 M417.94,276.309l-8.122,96.779c-0.875,10.433-9.762,18.604-20.231,18.604H122.415c-10.469,0-19.355-8.172-20.231-18.604
	l-8.122-96.779c-0.397-4.741,1.157-9.281,4.378-12.784c3.22-3.502,7.615-5.431,12.373-5.431h35.17c4.142,0,7.5-3.357,7.5-7.5
	s-3.358-7.5-7.5-7.5H116.92l-2.368-29.893H397.45l-2.367,29.893H177.984c-4.142,0-7.5,3.357-7.5,7.5s3.358,7.5,7.5,7.5h223.205
	c4.758,0,9.152,1.929,12.373,5.431C416.783,267.027,418.337,271.567,417.94,276.309z"/>
<g>
</g>
<g>
</g>
<g>
</g>
<g>
</g>
<g>
</g>
<g>
</g>
<g>
</g>
<g>
</g>
<g>
</g>
<g>
</g>
<g>
</g>
<g>
</g>
<g>
</g>
<g>
</g>
<g>
</g>
</svg>
